<?xml version="1.0" encoding="UTF-8"?>
<svg xmlns="http://www.w3.org/2000/svg" width="1200" height="630" viewBox="0 0 1200 630">
  <defs>
    <radialGradient id="spot" cx="30%" cy="30%" r="80%">
      <stop offset="0%" stop-color="#fb48b8" stop-opacity="0.55" />
      <stop offset="35%" stop-color="#a000ff" stop-opacity="0.45" />
      <stop offset="75%" stop-color="#5a0090" stop-opacity="0.35" />
      <stop offset="100%" stop-color="#0e0b14" stop-opacity="0" />
    </radialGradient>
    <linearGradient id="accent" x1="0" y1="0" x2="1" y2="1">
      <stop offset="0%" stop-color="#5a0090" />
      <stop offset="45%" stop-color="#a000ff" />
      <stop offset="100%" stop-color="#fb48b8" />
    </linearGradient>
  </defs>
  <rect width="1200" height="630" fill="#0e0b14" />
  <rect width="1200" height="630" fill="url(#spot)" />
  <!-- hairline border -->
  <rect x="0.5" y="0.5" width="1199" height="629" fill="none" stroke="rgba(255,255,255,0.06)" />

  <!-- Effect-annotation motif in the corner, a wink for the visual vocabulary -->
  <g font-family="'JetBrains Mono', ui-monospace, monospace" font-size="20" fill="#cfc4e0" opacity="0.75">
    <text x="72" y="88">![io, net, clock]</text>
  </g>

  <!-- Wordmark -->
  <g font-family="'Inter', -apple-system, 'Segoe UI', sans-serif" fill="#f4eefb">
    <text x="72" y="240" font-size="128" font-weight="800" letter-spacing="-5">sfn</text>
    <text x="72" y="290" font-size="22" font-weight="600" letter-spacing="8" fill="#cfc4e0">SAILFIN</text>
  </g>

  <!-- Tagline -->
  <g font-family="'Inter', -apple-system, 'Segoe UI', sans-serif" fill="#f4eefb">
    <text x="72" y="420" font-size="44" font-weight="700" letter-spacing="-1">Know what your code can do</text>
    <text x="72" y="472" font-size="44" font-weight="700" letter-spacing="-1" fill="url(#accent)">before it runs.</text>
    <text x="72" y="548" font-size="22" font-weight="500" fill="#cfc4e0">A compiled systems language with compile-time effect checking.</text>
  </g>

  <!-- Guillermo, placed on the right. The source viewBox is 0 0 256 256; we
       embed it as a nested <svg> with preserveAspectRatio so it scales cleanly. -->
  <svg x="780" y="115" width="380" height="380" viewBox="0 0 256 256" preserveAspectRatio="xMidYMid meet">
    
<path d="M183.058 99.0042V70.5786L164.151 80.9152V103.742C186.517 127.861 186.517 129.799 187.67 136.474C188.265 139.92 193.664 139.489 193.203 135.828C192.844 132.98 192.346 130.305 192.034 128.312C191.959 127.833 192.534 127.563 192.862 127.92C196.298 131.658 202.111 137.903 204.271 139.92C206.669 142.16 210.957 139.274 208.651 136.474L201.332 127.479C200.993 127.063 201.46 126.474 201.943 126.708C205.39 128.376 210.757 130.921 214.646 132.598C219.258 134.321 220.41 129.583 217.413 128.076L202.203 120.487C201.749 120.26 201.881 119.58 202.387 119.542C205.589 119.304 210.372 118.958 212.802 118.816C215.753 118.644 216.26 113.648 212.802 113.648L204.224 113.991C199.437 114.183 194.816 112.219 191.631 108.639L183.058 99.0042Z" fill="url(#paint0_linear_1268_25)"/>
<path d="M185.364 195.479C187.208 191.603 182.828 190.095 180.983 193.541C118.09 308.87 -41.4802 209.213 51.1701 133.864C173.819 119.63 160.977 81.3138 247.157 29.4476C256.841 23.6195 258.979 14.1924 251.537 11.1433C215.799 -3.50025 225.944 -1.34679 198.737 4.2522C179.83 6.19031 165.996 16.7422 142.709 33.7545C98.6697 49.6901 40.1051 78.1158 17.9704 116.663C-59.5011 246.731 135.56 311.766 185.364 195.479Z" fill="#5A0090"/>
<g clip-path="url(#paint1_angular_1268_25_clip_path)" data-figma-skip-parse="true"><g transform="matrix(0.0341243 -0.011198 0.00813261 0.0216183 164.613 77.2544)"><foreignObject x="-8758.53" y="-8758.53" width="17517.1" height="17517.1"><div xmlns="http://www.w3.org/1999/xhtml" style="background:conic-gradient(from 90deg,rgba(147, 2, 232, 0) 0deg,rgba(90, 0, 143, 1) 126.436deg,rgba(147, 2, 232, 0) 360deg);height:100%;width:100%;opacity:1"></div></foreignObject></g></g><path d="M185.364 195.479C187.208 191.603 182.828 190.095 180.983 193.541C118.09 308.87 -41.4802 209.213 51.1701 133.864C173.819 119.63 160.977 81.3138 247.157 29.4476C256.841 23.6195 258.979 14.1924 251.537 11.1433C215.799 -3.50025 225.944 -1.34679 198.737 4.2522C179.83 6.19031 165.996 16.7422 142.709 33.7545C98.6697 49.6901 40.1051 78.1158 17.9704 116.663C-59.5011 246.731 135.56 311.766 185.364 195.479Z" data-figma-gradient-fill="{&#34;type&#34;:&#34;GRADIENT_ANGULAR&#34;,&#34;stops&#34;:[{&#34;color&#34;:{&#34;r&#34;:0.35453554987907410,&#34;g&#34;:0.0,&#34;b&#34;:0.56339329481124878,&#34;a&#34;:1.0},&#34;position&#34;:0.35121056437492371},{&#34;color&#34;:{&#34;r&#34;:0.57706421613693237,&#34;g&#34;:0.0081091141328215599,&#34;b&#34;:0.91223704814910889,&#34;a&#34;:0.0},&#34;position&#34;:1.0}],&#34;stopsVar&#34;:[],&#34;transform&#34;:{&#34;m00&#34;:68.248611450195312,&#34;m01&#34;:16.265220642089844,&#34;m02&#34;:122.35574340820312,&#34;m10&#34;:-22.395935058593750,&#34;m11&#34;:43.236690521240234,&#34;m12&#34;:66.833976745605469},&#34;opacity&#34;:1.0,&#34;blendMode&#34;:&#34;NORMAL&#34;,&#34;visible&#34;:true}"/>
<path d="M231.017 40.2148C262.605 21.2643 259.146 13.9426 246.926 8.3436C248.033 16.6129 259.146 28.1554 197.815 50.1207C170.146 58.2265 165.766 29.3613 198.737 23.2024C202.196 22.5564 210.727 21.2643 217.183 21.2643C210.727 14.804 213.263 8.3436 219.488 2.95996C215.107 3.39065 205.377 5.93173 197.815 7.48222C188.361 9.42033 145.245 28.3707 151.701 45.8137C158.157 63.2567 189.514 59.1652 198.737 56.7964C206.115 54.9013 223.331 44.9524 231.017 40.2148Z" fill="url(#paint2_linear_1268_25)"/>
<path d="M163.69 128.076C153.315 128.291 150.317 129.153 148.703 126.569C146.49 122.606 138.712 107.977 135.1 101.158C137.098 98.6454 141.664 93.836 154.468 81.1306C167.271 68.4252 151.24 55.3517 139.019 67.1332C132.105 73.7996 127.348 78.8538 123.314 83.3924C115.943 91.6841 115.043 103.952 120.804 113.432C137.636 141.858 138.492 142.289 139.019 152.625C139.206 156.286 144.668 155.856 144.323 152.625C144.166 151.167 143.779 146.312 143.524 143.027C143.486 142.538 144.099 142.292 144.407 142.674C147.305 146.27 152.178 152.371 154.468 155.425C157.05 158.87 161.99 156.286 159.54 152.625C158.738 151.427 154.855 145.58 152.289 141.716C152.005 141.288 152.471 140.763 152.928 140.997C156.88 143.022 163.205 146.321 166.227 148.103C169.731 150.17 172.221 145.734 168.994 143.796C167.813 143.009 159.217 137.84 153.993 134.711C153.573 134.459 153.73 133.815 154.219 133.781C156.843 133.597 159.467 133.387 163.69 133.029C167.841 133.029 167.841 127.99 163.69 128.076Z" fill="url(#paint3_linear_1268_25)"/>
<path d="M189.284 15.8809C192.788 14.6749 210.265 9.34873 218.566 6.83636L217.413 16.9576L189.284 26.0021C174.066 30.9551 189.975 50.3362 208.651 44.5218C227.328 38.7075 242.545 30.5244 249.693 26.0021C256.84 21.4799 259.838 13.0814 247.387 8.34378C222.486 -1.99281 220.641 -0.485388 210.957 1.23738C192.973 4.68291 179.6 6.83636 174.066 11.3586C168.532 15.8809 149.164 30.309 134.869 35.6927C110.337 43.9619 77.611 62.5391 64.3148 70.794C91.2915 77.2544 93.674 94.8409 95.9029 103.527C98.8234 102.665 105.817 99.0043 110.429 91.2518C126.338 65.8411 140.864 56.1505 143.17 55.0738C145.475 53.9971 151.47 52.0589 160.232 41.7224C174.297 26.4328 184.903 17.3883 189.284 15.8809Z" fill="url(#paint4_linear_1268_25)"/>
<path d="M228.019 13.2968C228.019 17.1026 224.716 20.1879 220.641 20.1879C216.566 20.1879 213.263 17.1026 213.263 13.2968C213.263 9.49099 216.566 6.40576 220.641 6.40576C224.716 6.40576 228.019 9.49099 228.019 13.2968Z" fill="#5A0090"/>
<path d="M82.7606 168.776C82.1873 168.508 70.2221 163.021 63.6463 160.054C63.3126 159.903 63.2444 159.459 63.5144 159.212C66.0827 156.858 73.171 149.74 85.5275 135.828C93.9432 126.353 85.5275 112.571 69.1569 114.94C62.2398 115.941 54.4004 106.288 49.789 103.096C30.1906 89.5291 8.51703 129.583 44.9472 132.383C46.561 132.507 56.2451 135.785 59.0119 136.474C33.6493 162.531 40.3358 159.086 56.7062 182.989C59.066 186.435 63.6232 185.358 61.5482 180.405L57.6582 171.755C57.4374 171.264 58.0327 170.826 58.4307 171.188C63.0548 175.4 70.2485 182.286 72.6156 184.496C75.3822 187.081 79.9936 183.204 76.9964 180.405L66.1343 168.945C65.7643 168.555 66.185 167.934 66.6833 168.136C70.6805 169.758 76.7752 172.226 79.9938 173.514C83.6827 174.99 85.9884 170.284 82.7606 168.776Z" fill="url(#paint5_linear_1268_25)"/>
<mask id="mask0_1268_25" style="mask-type:alpha" maskUnits="userSpaceOnUse" x="64" y="0" width="192" height="104">
<path d="M189.284 15.8809C192.788 14.6749 210.265 9.34873 218.566 6.83636L217.413 16.9576L189.284 26.0021C174.066 30.9551 189.975 50.3362 208.651 44.5218C227.328 38.7075 242.545 30.5244 249.693 26.0021C256.84 21.4799 259.838 13.0814 247.387 8.34378C222.486 -1.99281 220.641 -0.485388 210.957 1.23738C192.973 4.68291 179.6 6.83636 174.066 11.3586C168.532 15.8809 149.164 30.309 134.869 35.6927C110.337 43.9619 77.611 62.5391 64.3148 70.794C91.2915 77.2544 93.674 94.8409 95.9029 103.527C98.8234 102.665 105.817 99.0043 110.429 91.2518C126.338 65.8411 140.864 56.1505 143.17 55.0738C145.475 53.9971 151.47 52.0589 160.232 41.7224C174.297 26.4328 184.903 17.3883 189.284 15.8809Z" fill="url(#paint6_linear_1268_25)"/>
</mask>
<g mask="url(#mask0_1268_25)">
<path d="M181.444 40.6458L240.701 20.188L265.372 25.787L201.273 56.1507L181.444 40.6458Z" fill="url(#paint7_linear_1268_25)"/>
</g>
<mask id="mask1_1268_25" style="mask-type:alpha" maskUnits="userSpaceOnUse" x="0" y="0" width="256" height="256">
<path d="M185.364 195.479C187.208 191.603 182.828 190.095 180.983 193.541C118.09 308.87 -41.4802 209.213 51.1701 133.864C173.819 119.63 160.977 81.3138 247.157 29.4476C256.841 23.6195 258.979 14.1924 251.537 11.1433C215.799 -3.50025 225.944 -1.34679 198.737 4.2522C179.83 6.19031 165.996 16.7422 142.709 33.7545C98.6697 49.6901 40.1051 78.1158 17.9704 116.663C-59.5011 246.731 135.56 311.766 185.364 195.479Z" fill="#5A0090"/>
<g clip-path="url(#paint8_angular_1268_25_clip_path)" data-figma-skip-parse="true"><g transform="matrix(0.0341243 -0.011198 0.00813261 0.0216183 164.613 77.2544)"><foreignObject x="-8758.53" y="-8758.53" width="17517.1" height="17517.1"><div xmlns="http://www.w3.org/1999/xhtml" style="background:conic-gradient(from 90deg,rgba(147, 2, 232, 0) 0deg,rgba(90, 0, 143, 1) 126.436deg,rgba(147, 2, 232, 0) 360deg);height:100%;width:100%;opacity:1"></div></foreignObject></g></g><path d="M185.364 195.479C187.208 191.603 182.828 190.095 180.983 193.541C118.09 308.87 -41.4802 209.213 51.1701 133.864C173.819 119.63 160.977 81.3138 247.157 29.4476C256.841 23.6195 258.979 14.1924 251.537 11.1433C215.799 -3.50025 225.944 -1.34679 198.737 4.2522C179.83 6.19031 165.996 16.7422 142.709 33.7545C98.6697 49.6901 40.1051 78.1158 17.9704 116.663C-59.5011 246.731 135.56 311.766 185.364 195.479Z" data-figma-gradient-fill="{&#34;type&#34;:&#34;GRADIENT_ANGULAR&#34;,&#34;stops&#34;:[{&#34;color&#34;:{&#34;r&#34;:0.35453554987907410,&#34;g&#34;:0.0,&#34;b&#34;:0.56339329481124878,&#34;a&#34;:1.0},&#34;position&#34;:0.35121056437492371},{&#34;color&#34;:{&#34;r&#34;:0.57706421613693237,&#34;g&#34;:0.0081091141328215599,&#34;b&#34;:0.91223704814910889,&#34;a&#34;:0.0},&#34;position&#34;:1.0}],&#34;stopsVar&#34;:[],&#34;transform&#34;:{&#34;m00&#34;:68.248611450195312,&#34;m01&#34;:16.265220642089844,&#34;m02&#34;:122.35574340820312,&#34;m10&#34;:-22.395935058593750,&#34;m11&#34;:43.236690521240234,&#34;m12&#34;:66.833976745605469},&#34;opacity&#34;:1.0,&#34;blendMode&#34;:&#34;NORMAL&#34;,&#34;visible&#34;:true}"/>
</mask>
<g mask="url(#mask1_1268_25)">
<path d="M25.5791 67.564C65.6983 76.6085 83.3753 98.143 77.6879 103.742C64.776 95.5589 37.5688 88.2371 11.2838 88.2371L25.5791 67.564Z" fill="url(#paint9_linear_1268_25)"/>
</g>
<mask id="mask2_1268_25" style="mask-type:alpha" maskUnits="userSpaceOnUse" x="0" y="0" width="256" height="256">
<path d="M185.364 195.479C187.208 191.603 182.828 190.095 180.983 193.541C118.09 308.87 -41.4802 209.213 51.1701 133.864C173.819 119.63 160.977 81.3138 247.157 29.4476C256.841 23.6195 258.979 14.1924 251.537 11.1433C215.799 -3.50025 225.944 -1.34679 198.737 4.2522C179.83 6.19031 165.996 16.7422 142.709 33.7545C98.6697 49.6901 40.1051 78.1158 17.9704 116.663C-59.5011 246.731 135.56 311.766 185.364 195.479Z" fill="#5A0090"/>
<g clip-path="url(#paint10_angular_1268_25_clip_path)" data-figma-skip-parse="true"><g transform="matrix(0.0341243 -0.011198 0.00813261 0.0216183 164.613 77.2544)"><foreignObject x="-8758.53" y="-8758.53" width="17517.1" height="17517.1"><div xmlns="http://www.w3.org/1999/xhtml" style="background:conic-gradient(from 90deg,rgba(147, 2, 232, 0) 0deg,rgba(90, 0, 143, 1) 126.436deg,rgba(147, 2, 232, 0) 360deg);height:100%;width:100%;opacity:1"></div></foreignObject></g></g><path d="M185.364 195.479C187.208 191.603 182.828 190.095 180.983 193.541C118.09 308.87 -41.4802 209.213 51.1701 133.864C173.819 119.63 160.977 81.3138 247.157 29.4476C256.841 23.6195 258.979 14.1924 251.537 11.1433C215.799 -3.50025 225.944 -1.34679 198.737 4.2522C179.83 6.19031 165.996 16.7422 142.709 33.7545C98.6697 49.6901 40.1051 78.1158 17.9704 116.663C-59.5011 246.731 135.56 311.766 185.364 195.479Z" data-figma-gradient-fill="{&#34;type&#34;:&#34;GRADIENT_ANGULAR&#34;,&#34;stops&#34;:[{&#34;color&#34;:{&#34;r&#34;:0.35453554987907410,&#34;g&#34;:0.0,&#34;b&#34;:0.56339329481124878,&#34;a&#34;:1.0},&#34;position&#34;:0.35121056437492371},{&#34;color&#34;:{&#34;r&#34;:0.57706421613693237,&#34;g&#34;:0.0081091141328215599,&#34;b&#34;:0.91223704814910889,&#34;a&#34;:0.0},&#34;position&#34;:1.0}],&#34;stopsVar&#34;:[],&#34;transform&#34;:{&#34;m00&#34;:68.248611450195312,&#34;m01&#34;:16.265220642089844,&#34;m02&#34;:122.35574340820312,&#34;m10&#34;:-22.395935058593750,&#34;m11&#34;:43.236690521240234,&#34;m12&#34;:66.833976745605469},&#34;opacity&#34;:1.0,&#34;blendMode&#34;:&#34;NORMAL&#34;,&#34;visible&#34;:true}"/>
</mask>
<g mask="url(#mask2_1268_25)">
<path d="M59.7035 291.523L68.9263 218.306L196.201 170.93L295.807 241.563L59.7035 291.523Z" fill="url(#paint11_linear_1268_25)"/>
</g>
<defs>
<clipPath id="paint1_angular_1268_25_clip_path"><path d="M185.364 195.479C187.208 191.603 182.828 190.095 180.983 193.541C118.09 308.87 -41.4802 209.213 51.1701 133.864C173.819 119.63 160.977 81.3138 247.157 29.4476C256.841 23.6195 258.979 14.1924 251.537 11.1433C215.799 -3.50025 225.944 -1.34679 198.737 4.2522C179.83 6.19031 165.996 16.7422 142.709 33.7545C98.6697 49.6901 40.1051 78.1158 17.9704 116.663C-59.5011 246.731 135.56 311.766 185.364 195.479Z"/></clipPath><clipPath id="paint8_angular_1268_25_clip_path"><path d="M185.364 195.479C187.208 191.603 182.828 190.095 180.983 193.541C118.09 308.87 -41.4802 209.213 51.1701 133.864C173.819 119.63 160.977 81.3138 247.157 29.4476C256.841 23.6195 258.979 14.1924 251.537 11.1433C215.799 -3.50025 225.944 -1.34679 198.737 4.2522C179.83 6.19031 165.996 16.7422 142.709 33.7545C98.6697 49.6901 40.1051 78.1158 17.9704 116.663C-59.5011 246.731 135.56 311.766 185.364 195.479Z"/></clipPath><clipPath id="paint10_angular_1268_25_clip_path"><path d="M185.364 195.479C187.208 191.603 182.828 190.095 180.983 193.541C118.09 308.87 -41.4802 209.213 51.1701 133.864C173.819 119.63 160.977 81.3138 247.157 29.4476C256.841 23.6195 258.979 14.1924 251.537 11.1433C215.799 -3.50025 225.944 -1.34679 198.737 4.2522C179.83 6.19031 165.996 16.7422 142.709 33.7545C98.6697 49.6901 40.1051 78.1158 17.9704 116.663C-59.5011 246.731 135.56 311.766 185.364 195.479Z"/></clipPath><linearGradient id="paint0_linear_1268_25" x1="219.258" y1="130.014" x2="177.03" y2="92.7247" gradientUnits="userSpaceOnUse">
<stop stop-color="#FB48B8"/>
<stop offset="1" stop-color="#5A0090"/>
</linearGradient>
<linearGradient id="paint2_linear_1268_25" x1="180.983" y1="65.4102" x2="176.554" y2="13.4571" gradientUnits="userSpaceOnUse">
<stop offset="0.138444" stop-color="#E121B7"/>
<stop offset="1" stop-color="#5A0090"/>
</linearGradient>
<linearGradient id="paint3_linear_1268_25" x1="129.797" y1="94.6974" x2="99.5012" y2="176.229" gradientUnits="userSpaceOnUse">
<stop stop-color="#FB48B8"/>
<stop offset="0.837811" stop-color="#A000FF"/>
</linearGradient>
<linearGradient id="paint4_linear_1268_25" x1="127.491" y1="41.7224" x2="135.956" y2="111.642" gradientUnits="userSpaceOnUse">
<stop stop-color="#FB48B8"/>
<stop offset="1" stop-color="#A000FF"/>
</linearGradient>
<linearGradient id="paint5_linear_1268_25" x1="80.9159" y1="131.306" x2="39.4809" y2="187.893" gradientUnits="userSpaceOnUse">
<stop stop-color="#FB48B8"/>
<stop offset="1" stop-color="#A000FF"/>
</linearGradient>
<linearGradient id="paint6_linear_1268_25" x1="127.491" y1="41.7224" x2="135.956" y2="111.642" gradientUnits="userSpaceOnUse">
<stop stop-color="#E121B7"/>
<stop offset="1" stop-color="#A000FF"/>
</linearGradient>
<linearGradient id="paint7_linear_1268_25" x1="228.711" y1="38.277" x2="205.83" y2="3.2143" gradientUnits="userSpaceOnUse">
<stop offset="0.249082" stop-color="#FB48B8"/>
<stop offset="0.79" stop-color="#7903BE"/>
</linearGradient>
<linearGradient id="paint9_linear_1268_25" x1="51.4029" y1="93.4054" x2="74.1474" y2="68.5935" gradientUnits="userSpaceOnUse">
<stop stop-color="#FB48B8"/>
<stop offset="1" stop-color="#5A0090"/>
</linearGradient>
<linearGradient id="paint11_linear_1268_25" x1="213.724" y1="139.059" x2="101.598" y2="266.442" gradientUnits="userSpaceOnUse">
<stop stop-color="#FB48B8"/>
<stop offset="1" stop-color="#5A0090"/>
</linearGradient>
</defs>

  </svg>
</svg>